<svg xmlns="http://www.w3.org/2000/svg" width="9.954ex" height="3.242ex" role="img" focusable="false" viewBox="0 -1183 4399.7 1433" xmlns:xlink="http://www.w3.org/1999/xlink" aria-hidden="true" style="vertical-align: -0.566ex;"><style>svg{color:#888;}@media(prefers-color-scheme:dark){svg{color:#ddd;}}</style><defs><path id="MJX-19-TEX-N-52" d="M130 622Q123 629 119 631T103 634T60 637H27V683H202H236H300Q376 683 417 677T500 648Q595 600 609 517Q610 512 610 501Q610 468 594 439T556 392T511 361T472 343L456 338Q459 335 467 332Q497 316 516 298T545 254T559 211T568 155T578 94Q588 46 602 31T640 16H645Q660 16 674 32T692 87Q692 98 696 101T712 105T728 103T732 90Q732 59 716 27T672 -16Q656 -22 630 -22Q481 -16 458 90Q456 101 456 163T449 246Q430 304 373 320L363 322L297 323H231V192L232 61Q238 51 249 49T301 46H334V0H323Q302 3 181 3Q59 3 38 0H27V46H60Q102 47 111 49T130 61V622ZM491 499V509Q491 527 490 539T481 570T462 601T424 623T362 636Q360 636 340 636T304 637H283Q238 637 234 628Q231 624 231 492V360H289Q390 360 434 378T489 456Q491 467 491 499Z"/><path id="MJX-19-TEX-N-69" d="M69 609Q69 637 87 653T131 669Q154 667 171 652T188 609Q188 579 171 564T129 549Q104 549 87 564T69 609ZM247 0Q232 3 143 3Q132 3 106 3T56 1L34 0H26V46H42Q70 46 91 49Q100 53 102 60T104 102V205V293Q104 345 102 359T88 378Q74 385 41 385H30V408Q30 431 32 431L42 432Q52 433 70 434T106 436Q123 437 142 438T171 441T182 442H185V62Q190 52 197 50T232 46H255V0H247Z"/><path id="MJX-19-TEX-N-73" d="M295 316Q295 356 268 385T190 414Q154 414 128 401Q98 382 98 349Q97 344 98 336T114 312T157 287Q175 282 201 278T245 269T277 256Q294 248 310 236T342 195T359 133Q359 71 321 31T198 -10H190Q138 -10 94 26L86 19L77 10Q71 4 65 -1L54 -11H46H42Q39 -11 33 -5V74V132Q33 153 35 157T45 162H54Q66 162 70 158T75 146T82 119T101 77Q136 26 198 26Q295 26 295 104Q295 133 277 151Q257 175 194 187T111 210Q75 227 54 256T33 318Q33 357 50 384T93 424T143 442T187 447H198Q238 447 268 432L283 424L292 431Q302 440 314 448H322H326Q329 448 335 442V310L329 304H301Q295 310 295 316Z"/><path id="MJX-19-TEX-N-6B" d="M36 46H50Q89 46 97 60V68Q97 77 97 91T97 124T98 167T98 217T98 272T98 329Q98 366 98 407T98 482T98 542T97 586T97 603Q94 622 83 628T38 637H20V660Q20 683 22 683L32 684Q42 685 61 686T98 688Q115 689 135 690T165 693T176 694H179V463L180 233L240 287Q300 341 304 347Q310 356 310 364Q310 383 289 385H284V431H293Q308 428 412 428Q475 428 484 431H489V385H476Q407 380 360 341Q286 278 286 274Q286 273 349 181T420 79Q434 60 451 53T500 46H511V0H505Q496 3 418 3Q322 3 307 0H299V46H306Q330 48 330 65Q330 72 326 79Q323 84 276 153T228 222L176 176V120V84Q176 65 178 59T189 49Q210 46 238 46H254V0H246Q231 3 137 3T28 0H20V46H36Z"/><path id="MJX-19-TEX-S4-2C6" d="M5 561Q-4 561 -9 582T-14 618Q-14 623 -13 625Q-11 628 461 736T943 845Q945 845 1417 738T1896 628Q1902 628 1902 618Q1902 607 1897 584T1883 561Q1881 561 1412 654L945 750L476 654Q6 561 5 561Z"/><path id="MJX-19-TEX-N-28" d="M94 250Q94 319 104 381T127 488T164 576T202 643T244 695T277 729T302 750H315H319Q333 750 333 741Q333 738 316 720T275 667T226 581T184 443T167 250T184 58T225 -81T274 -167T316 -220T333 -241Q333 -250 318 -250H315H302L274 -226Q180 -141 137 -14T94 250Z"/><path id="MJX-19-TEX-I-1D706" d="M166 673Q166 685 183 694H202Q292 691 316 644Q322 629 373 486T474 207T524 67Q531 47 537 34T546 15T551 6T555 2T556 -2T550 -11H482Q457 3 450 18T399 152L354 277L340 262Q327 246 293 207T236 141Q211 112 174 69Q123 9 111 -1T83 -12Q47 -12 47 20Q47 37 61 52T199 187Q229 216 266 252T321 306L338 322Q338 323 288 462T234 612Q214 657 183 657Q166 657 166 673Z"/><path id="MJX-19-TEX-N-3B" d="M78 370Q78 394 95 412T138 430Q162 430 180 414T199 371Q199 346 182 328T139 310T96 327T78 370ZM78 60Q78 85 94 103T137 121Q202 121 202 8Q202 -44 183 -94T144 -169T118 -194Q115 -194 106 -186T95 -174Q94 -171 107 -155T137 -107T160 -38Q161 -32 162 -22T165 -4T165 4Q165 5 161 4T142 0Q110 0 94 18T78 60Z"/><path id="MJX-19-TEX-C-56" d="M25 633Q25 647 47 665T100 683Q291 683 291 306Q291 264 288 213T282 132L279 102Q281 102 308 126T378 191T464 279T545 381T596 479Q600 490 600 502Q600 527 581 550T523 577Q505 577 505 601Q505 622 516 647T542 681Q546 683 558 683Q605 679 631 645T658 559Q658 423 487 215Q409 126 308 37T190 -52Q177 -52 177 -28Q177 -26 183 15T196 127T203 270Q203 356 192 421T165 523T126 583T83 613T41 620Q25 620 25 633Z"/><path id="MJX-19-TEX-N-29" d="M60 749L64 750Q69 750 74 750H86L114 726Q208 641 251 514T294 250Q294 182 284 119T261 12T224 -76T186 -143T145 -194T113 -227T90 -246Q87 -249 86 -250H74Q66 -250 63 -250T58 -247T55 -238Q56 -237 66 -225Q221 -64 221 250T66 725Q56 737 55 738Q55 746 60 749Z"/></defs><g stroke="currentColor" fill="currentColor" stroke-width="0" transform="scale(1,-1)"><g data-mml-node="math"><g data-mml-node="TeXAtom" data-mjx-texclass="ORD"><g data-mml-node="mover"><g data-mml-node="TeXAtom" data-mjx-texclass="ORD"><g data-mml-node="mi"><use data-c="52" xmlns:xlink="http://www.w3.org/1999/xlink" xlink:href="#MJX-19-TEX-N-52"/><use data-c="69" xmlns:xlink="http://www.w3.org/1999/xlink" xlink:href="#MJX-19-TEX-N-69" transform="translate(736,0)"/><use data-c="73" xmlns:xlink="http://www.w3.org/1999/xlink" xlink:href="#MJX-19-TEX-N-73" transform="translate(1014,0)"/><use data-c="6B" xmlns:xlink="http://www.w3.org/1999/xlink" xlink:href="#MJX-19-TEX-N-6B" transform="translate(1408,0)"/></g></g><g data-mml-node="mo" transform="translate(968,238) translate(-951 0)"><use data-c="2C6" xmlns:xlink="http://www.w3.org/1999/xlink" xlink:href="#MJX-19-TEX-S4-2C6"/></g></g></g><g data-mml-node="mo" transform="translate(1936,0)"><use data-c="28" xmlns:xlink="http://www.w3.org/1999/xlink" xlink:href="#MJX-19-TEX-N-28"/></g><g data-mml-node="mi" transform="translate(2325,0)"><use data-c="1D706" xmlns:xlink="http://www.w3.org/1999/xlink" xlink:href="#MJX-19-TEX-I-1D706"/></g><g data-mml-node="mo" transform="translate(2908,0)"><use data-c="3B" xmlns:xlink="http://www.w3.org/1999/xlink" xlink:href="#MJX-19-TEX-N-3B"/></g><g data-mml-node="TeXAtom" data-mjx-texclass="ORD" transform="translate(3352.7,0)"><g data-mml-node="mi"><use data-c="56" xmlns:xlink="http://www.w3.org/1999/xlink" xlink:href="#MJX-19-TEX-C-56"/></g></g><g data-mml-node="mo" transform="translate(4010.7,0)"><use data-c="29" xmlns:xlink="http://www.w3.org/1999/xlink" xlink:href="#MJX-19-TEX-N-29"/></g></g></g></svg>