<svg xmlns="http://www.w3.org/2000/svg" width="11.835ex" height="2.398ex" role="img" focusable="false" viewBox="0 -810 5231 1060" xmlns:xlink="http://www.w3.org/1999/xlink" aria-hidden="true" style="vertical-align: -0.566ex;"><style>svg{color:#888;}@media(prefers-color-scheme:dark){svg{color:#ddd;}}</style><defs><path id="MJX-6-TEX-I-1D450" d="M34 159Q34 268 120 355T306 442Q362 442 394 418T427 355Q427 326 408 306T360 285Q341 285 330 295T319 325T330 359T352 380T366 386H367Q367 388 361 392T340 400T306 404Q276 404 249 390Q228 381 206 359Q162 315 142 235T121 119Q121 73 147 50Q169 26 205 26H209Q321 26 394 111Q403 121 406 121Q410 121 419 112T429 98T420 83T391 55T346 25T282 0T202 -11Q127 -11 81 37T34 159Z"/><path id="MJX-6-TEX-N-5E" d="M112 560L249 694L257 686Q387 562 387 560L361 531Q359 532 303 581L250 627L195 580Q182 569 169 557T148 538L140 532Q138 530 125 546L112 560Z"/><path id="MJX-6-TEX-N-3D" d="M56 347Q56 360 70 367H707Q722 359 722 347Q722 336 708 328L390 327H72Q56 332 56 347ZM56 153Q56 168 72 173H708Q722 163 722 153Q722 140 707 133H70Q56 140 56 153Z"/><path id="MJX-6-TEX-I-1D44E" d="M33 157Q33 258 109 349T280 441Q331 441 370 392Q386 422 416 422Q429 422 439 414T449 394Q449 381 412 234T374 68Q374 43 381 35T402 26Q411 27 422 35Q443 55 463 131Q469 151 473 152Q475 153 483 153H487Q506 153 506 144Q506 138 501 117T481 63T449 13Q436 0 417 -8Q409 -10 393 -10Q359 -10 336 5T306 36L300 51Q299 52 296 50Q294 48 292 46Q233 -10 172 -10Q117 -10 75 30T33 157ZM351 328Q351 334 346 350T323 385T277 405Q242 405 210 374T160 293Q131 214 119 129Q119 126 119 118T118 106Q118 61 136 44T179 26Q217 26 254 59T298 110Q300 114 325 217T351 328Z"/><path id="MJX-6-TEX-N-28" d="M94 250Q94 319 104 381T127 488T164 576T202 643T244 695T277 729T302 750H315H319Q333 750 333 741Q333 738 316 720T275 667T226 581T184 443T167 250T184 58T225 -81T274 -167T316 -220T333 -241Q333 -250 318 -250H315H302L274 -226Q180 -141 137 -14T94 250Z"/><path id="MJX-6-TEX-I-1D460" d="M131 289Q131 321 147 354T203 415T300 442Q362 442 390 415T419 355Q419 323 402 308T364 292Q351 292 340 300T328 326Q328 342 337 354T354 372T367 378Q368 378 368 379Q368 382 361 388T336 399T297 405Q249 405 227 379T204 326Q204 301 223 291T278 274T330 259Q396 230 396 163Q396 135 385 107T352 51T289 7T195 -10Q118 -10 86 19T53 87Q53 126 74 143T118 160Q133 160 146 151T160 120Q160 94 142 76T111 58Q109 57 108 57T107 55Q108 52 115 47T146 34T201 27Q237 27 263 38T301 66T318 97T323 122Q323 150 302 164T254 181T195 196T148 231Q131 256 131 289Z"/><path id="MJX-6-TEX-N-29" d="M60 749L64 750Q69 750 74 750H86L114 726Q208 641 251 514T294 250Q294 182 284 119T261 12T224 -76T186 -143T145 -194T113 -227T90 -246Q87 -249 86 -250H74Q66 -250 63 -250T58 -247T55 -238Q56 -237 66 -225Q221 -64 221 250T66 725Q56 737 55 738Q55 746 60 749Z"/><path id="MJX-6-TEX-N-2B" d="M56 237T56 250T70 270H369V420L370 570Q380 583 389 583Q402 583 409 568V270H707Q722 262 722 250T707 230H409V-68Q401 -82 391 -82H389H387Q375 -82 369 -68V230H70Q56 237 56 250Z"/><path id="MJX-6-TEX-I-1D700" d="M190 -22Q124 -22 76 11T27 107Q27 174 97 232L107 239L99 248Q76 273 76 304Q76 364 144 408T290 452H302Q360 452 405 421Q428 405 428 392Q428 381 417 369T391 356Q382 356 371 365T338 383T283 392Q217 392 167 368T116 308Q116 289 133 272Q142 263 145 262T157 264Q188 278 238 278H243Q308 278 308 247Q308 206 223 206Q177 206 142 219L132 212Q68 169 68 112Q68 39 201 39Q253 39 286 49T328 72T345 94T362 105Q376 103 376 88Q376 79 365 62T334 26T275 -8T190 -22Z"/></defs><g stroke="currentColor" fill="currentColor" stroke-width="0" transform="scale(1,-1)"><g data-mml-node="math"><g data-mml-node="TeXAtom" data-mjx-texclass="ORD"><g data-mml-node="mover"><g data-mml-node="mi"><use data-c="1D450" xmlns:xlink="http://www.w3.org/1999/xlink" xlink:href="#MJX-6-TEX-I-1D450"/></g><g data-mml-node="mo" transform="translate(272.1,16) translate(-250 0)"><use data-c="5E" xmlns:xlink="http://www.w3.org/1999/xlink" xlink:href="#MJX-6-TEX-N-5E"/></g></g></g><g data-mml-node="mo" transform="translate(710.8,0)"><use data-c="3D" xmlns:xlink="http://www.w3.org/1999/xlink" xlink:href="#MJX-6-TEX-N-3D"/></g><g data-mml-node="mi" transform="translate(1766.6,0)"><use data-c="1D44E" xmlns:xlink="http://www.w3.org/1999/xlink" xlink:href="#MJX-6-TEX-I-1D44E"/></g><g data-mml-node="mo" transform="translate(2295.6,0)"><use data-c="28" xmlns:xlink="http://www.w3.org/1999/xlink" xlink:href="#MJX-6-TEX-N-28"/></g><g data-mml-node="mi" transform="translate(2684.6,0)"><use data-c="1D460" xmlns:xlink="http://www.w3.org/1999/xlink" xlink:href="#MJX-6-TEX-I-1D460"/></g><g data-mml-node="mo" transform="translate(3153.6,0)"><use data-c="29" xmlns:xlink="http://www.w3.org/1999/xlink" xlink:href="#MJX-6-TEX-N-29"/></g><g data-mml-node="mo" transform="translate(3764.8,0)"><use data-c="2B" xmlns:xlink="http://www.w3.org/1999/xlink" xlink:href="#MJX-6-TEX-N-2B"/></g><g data-mml-node="mi" transform="translate(4765,0)"><use data-c="1D700" xmlns:xlink="http://www.w3.org/1999/xlink" xlink:href="#MJX-6-TEX-I-1D700"/></g></g></g></svg>